<?xml version="1.0" encoding="UTF-8" standalone="no"?>
<!-- Created with Inkscape (http://www.inkscape.org/) -->

<svg
   width="210mm"
   height="297mm"
   viewBox="0 0 210 297"
   version="1.1"
   id="svg5"
   inkscape:version="1.1.1 (3bf5ae0d25, 2021-09-20)"
   sodipodi:docname="DMC.svg"
   xmlns:inkscape="http://www.inkscape.org/namespaces/inkscape"
   xmlns:sodipodi="http://sodipodi.sourceforge.net/DTD/sodipodi-0.dtd"
   xmlns="http://www.w3.org/2000/svg"
   xmlns:svg="http://www.w3.org/2000/svg">
  <sodipodi:namedview
     id="namedview7"
     pagecolor="#ffffff"
     bordercolor="#666666"
     borderopacity="1.0"
     inkscape:pageshadow="2"
     inkscape:pageopacity="0.0"
     inkscape:pagecheckerboard="0"
     inkscape:document-units="mm"
     showgrid="false"
     inkscape:snap-grids="false"
     inkscape:zoom="2.3232521"
     inkscape:cx="406.54218"
     inkscape:cy="565.37126"
     inkscape:window-width="1920"
     inkscape:window-height="1001"
     inkscape:window-x="-9"
     inkscape:window-y="-9"
     inkscape:window-maximized="1"
     inkscape:current-layer="layer1" />
  <defs
     id="defs2">
    <inkscape:path-effect
       effect="offset"
       id="path-effect33842"
       is_visible="true"
       lpeversion="1"
       linejoin_type="miter"
       unit="mm"
       offset="0.5"
       miter_limit="4"
       attempt_force_join="false"
       update_on_knot_move="true" />
    <inkscape:path-effect
       effect="offset"
       id="path-effect33700"
       is_visible="true"
       lpeversion="1"
       linejoin_type="miter"
       unit="mm"
       offset="0.9"
       miter_limit="4"
       attempt_force_join="false"
       update_on_knot_move="true" />
    <inkscape:path-effect
       effect="offset"
       id="path-effect32622"
       is_visible="true"
       lpeversion="1"
       linejoin_type="miter"
       unit="mm"
       offset="0.5"
       miter_limit="4"
       attempt_force_join="false"
       update_on_knot_move="true" />
    <inkscape:path-effect
       effect="offset"
       id="path-effect30177"
       is_visible="true"
       lpeversion="1"
       linejoin_type="miter"
       unit="mm"
       offset="0.5"
       miter_limit="4"
       attempt_force_join="false"
       update_on_knot_move="true" />
    <inkscape:path-effect
       effect="offset"
       id="path-effect30133"
       is_visible="true"
       lpeversion="1"
       linejoin_type="miter"
       unit="mm"
       offset="0"
       miter_limit="4"
       attempt_force_join="false"
       update_on_knot_move="true" />
    <inkscape:path-effect
       effect="offset"
       id="path-effect27980"
       is_visible="true"
       lpeversion="1"
       linejoin_type="miter"
       unit="mm"
       offset="0.6"
       miter_limit="2.3"
       attempt_force_join="false"
       update_on_knot_move="true" />
    <rect
       x="141.79646"
       y="487.38697"
       width="530.3556"
       height="166.9638"
       id="rect15643" />
    <rect
       x="265.42337"
       y="481.07987"
       width="98.151352"
       height="45.619642"
       id="rect5205" />
    <rect
       x="-95.386525"
       y="442.37229"
       width="1050.6342"
       height="262.65855"
       id="rect1815" />
  </defs>
  <g
     inkscape:label="Layer 1"
     inkscape:groupmode="layer"
     id="layer1">
    <text
       xml:space="preserve"
       transform="scale(0.26458333)"
       id="text5203"
       style="fill:black;fill-opacity:1;line-height:1.25;stroke:none;font-family:sans-serif;font-style:normal;font-weight:normal;font-size:40px;white-space:pre;shape-inside:url(#rect5205)" />
    <rect
       id="rect12565"
       width="27.432268"
       height="24.87192"
       x="-126.18842"
       y="61.814041"
       style="stroke-width:0.264583" />
    <path
       d="m 47.04694,144.80614 h -2.439128 v -12.11296 q 2.331641,-0.0827 2.984831,-0.0827 2.538346,0 4.018359,1.54616 1.480013,1.53789 1.480013,4.10104 0,6.54844 -6.044075,6.54844 z m -0.785482,-10.62468 v 9.05371 q 0.553972,0.0827 1.372526,0.0827 1.736328,0 2.728516,-1.29812 0.992187,-1.30638 0.992187,-3.62148 0,-4.29948 -3.861263,-4.29948 -0.23151,0 -1.231966,0.0827 z"
       id="path18569"
       style="font-size:64px;line-height:1.25;font-family:'Trebuchet MS';-inkscape-font-specification:'Trebuchet MS, Normal';white-space:pre;opacity:0.5;stroke-width:0.264583" />
    <path
       d="m 53.254112,140.01257 q 0,-2.05052 1.099674,-3.30729 1.107943,-1.26504 2.910417,-1.26504 1.901692,0 2.951758,1.21543 1.050065,1.20716 1.050065,3.3569 0,2.14147 -1.07487,3.38171 -1.07487,1.23196 -2.926953,1.23196 -1.893425,0 -2.951758,-1.2485 -1.058333,-1.2485 -1.058333,-3.36517 z m 1.653645,0 q 0,3.3321 2.356446,3.3321 1.099674,0 1.719791,-0.89297 0.628386,-0.89297 0.628386,-2.43913 0,-3.29076 -2.348177,-3.29076 -1.07487,0 -1.719792,0.87644 -0.636654,0.87643 -0.636654,2.41432 z"
       id="path18571"
       style="font-size:64px;line-height:1.25;font-family:'Trebuchet MS';-inkscape-font-specification:'Trebuchet MS, Normal';white-space:pre;opacity:0.5;stroke-width:0.264583" />
    <path
       d="m 66.987371,144.46088 v -5.15111 q 0,-1.41387 -0.429948,-1.97611 -0.421679,-0.5705 -1.422135,-0.5705 -0.537435,0 -1.124479,0.32246 -0.587044,0.32246 -0.901237,0.79375 v 6.58151 h -1.570964 v -8.85528 h 1.07487 l 0.496094,1.14102 q 0.777213,-1.30638 2.538346,-1.30638 2.910417,0 2.910417,3.5388 v 5.48184 z"
       id="path18573"
       style="font-size:64px;line-height:1.25;font-family:'Trebuchet MS';-inkscape-font-specification:'Trebuchet MS, Normal';white-space:pre;opacity:0.5;stroke-width:0.264583" />
    <path
       d="m 74.498289,143.44389 q -0.942578,1.18235 -2.885612,1.18235 -1.041796,0 -1.810742,-0.75241 -0.760677,-0.76067 -0.760677,-1.88515 0,-1.34772 1.174089,-2.27377 1.182356,-0.93431 3.009635,-0.93431 0.496094,0 1.124479,0.21498 0,-2.14974 -1.918229,-2.14974 -1.471745,0 -2.265495,0.79375 l -0.661458,-1.31465 q 0.446484,-0.3638 1.231966,-0.62012 0.79375,-0.26458 1.513086,-0.26458 1.926497,0 2.794661,0.87643 0.876433,0.87643 0.876433,2.78639 v 3.175 q 0,1.16583 0.694531,1.55443 v 0.78548 q -0.959115,0 -1.438672,-0.27285 -0.471289,-0.27285 -0.677995,-0.90123 z m -0.148828,-3.3321 q -0.74414,-0.16537 -1.041797,-0.16537 -1.190625,0 -1.943033,0.61185 -0.752409,0.61185 -0.752409,1.44694 0,1.3808 1.628841,1.3808 1.190625,0 2.108398,-1.13275 z"
       id="path18575"
       style="font-size:64px;line-height:1.25;font-family:'Trebuchet MS';-inkscape-font-specification:'Trebuchet MS, Normal';white-space:pre;opacity:0.5;stroke-width:0.264583" />
    <path
       id="path18577"
       style="font-size:64px;line-height:1.25;font-family:'Trebuchet MS';-inkscape-font-specification:'Trebuchet MS, Normal';white-space:pre;opacity:0.5;stroke-width:0.266771"
       d="m 76.790566,131.9758 v 9.97975 c 0,2.40815 2.32401,2.84672 4.4173,2.79673 l 0.296625,-1.58647 c -1.121786,-0.0627 -2.527631,-0.17913 -2.705262,-0.35036 -0.274581,-0.27561 -0.411861,-0.65043 -0.411861,-1.12448 v -9.71517 z" />
    <path
       d="m 96.746778,146.66071 -1.967842,-10.3062 -3.619012,10.52524 h -0.565479 l -3.720797,-10.52524 -1.922603,10.3062 h -2.148791 l 3.098783,-16.04525 h 1.029158 l 3.94699,11.7081 3.641633,-11.7081 h 1.017848 l 3.358906,16.04525 z"
       id="path18579"
       style="font-size:64px;line-height:1.25;font-family:'Trebuchet MS';-inkscape-font-specification:'Trebuchet MS, Normal';white-space:pre;opacity:0.5;stroke-width:0.356143"
       inkscape:path-effect="#path-effect30133"
       inkscape:original-d="m 96.746778,146.66071 -1.967842,-10.3062 -3.619012,10.52524 h -0.565479 l -3.720797,-10.52524 -1.922603,10.3062 h -2.148791 l 3.098783,-16.04525 h 1.029158 l 3.94699,11.7081 3.641633,-11.7081 h 1.017848 l 3.358906,16.04525 z" />
    <path
       id="path18581"
       style="font-size:64px;line-height:1.25;font-family:'Trebuchet MS';-inkscape-font-specification:'Trebuchet MS, Normal';white-space:pre;opacity:0.5;stroke-width:0.999999"
       d="M 378.91016 511.36523 C 377.09764 511.36523 375.19141 511.69858 373.19141 512.36523 C 371.21224 513.01108 369.66016 513.79232 368.53516 514.70898 L 371.03516 519.67773 C 373.03516 517.67773 375.8893 516.67773 379.59766 516.67773 C 384.43099 516.67773 386.84766 519.38607 386.84766 524.80273 C 385.26431 524.26105 383.84765 523.99023 382.59766 523.99023 C 377.99348 523.99023 374.20183 525.16732 371.22266 527.52148 C 370.80069 527.8543 370.40865 528.1983 370.04688 528.55273 L 373.43555 545.59766 C 374.40028 545.91941 375.4225 546.08398 376.50391 546.08398 C 381.39977 546.08398 385.03518 544.59438 387.41016 541.61523 C 387.931 543.19855 388.78515 544.33399 389.97266 545.02148 C 391.181 545.70898 392.9935 546.05273 395.41016 546.05273 L 395.41016 543.08398 C 393.66016 542.10483 392.78516 540.14651 392.78516 537.20898 L 392.78516 525.20898 C 392.78516 520.39649 391.68098 516.88606 389.47266 514.67773 C 387.28514 512.46941 383.7643 511.36523 378.91016 511.36523 z M 382.91016 528.39648 C 383.66017 528.39648 384.97266 528.6048 386.84766 529.02148 L 386.84766 537.11523 C 384.53514 539.96941 381.87889 541.39648 378.87891 541.39648 C 374.77472 541.39648 372.72266 539.65692 372.72266 536.17773 C 372.72266 534.07357 373.67056 532.25065 375.56641 530.70898 C 377.46223 529.16732 379.91014 528.39648 382.91016 528.39648 z "
       transform="scale(0.26458333)" />
    <path
       id="path18583"
       style="font-size:64px;line-height:1.25;font-family:'Trebuchet MS';-inkscape-font-specification:'Trebuchet MS, Normal';white-space:pre;opacity:0.5;stroke-width:0.999999"
       d="M 412.06445 511.36523 C 406.68946 511.36523 402.44988 512.97983 399.3457 516.20898 C 396.26236 519.43816 394.7207 523.71939 394.7207 529.05273 C 394.7207 534.28189 396.21028 538.42773 399.18945 541.49023 C 402.16863 544.55274 405.93946 546.08398 410.50195 546.08398 C 413.91502 546.08398 416.92907 545.54278 419.54297 544.45898 L 419.54297 538.33008 C 416.99 540.16594 414.45533 541.08398 411.93945 541.08398 C 408.50195 541.08398 405.81444 540.06316 403.87695 538.02148 C 401.93944 535.95897 400.9707 532.96938 400.9707 529.05273 C 400.9707 525.11522 401.91862 522.02149 403.81445 519.77148 C 405.71029 517.50067 408.2728 516.36523 411.50195 516.36523 C 412.98113 516.36523 414.48112 516.63608 416.00195 517.17773 C 417.54362 517.71939 418.61653 518.29231 419.2207 518.89648 L 419.54297 518.4375 L 419.54297 513.20312 C 418.98335 512.95309 418.36934 512.70431 417.68945 512.45898 C 415.66862 511.72981 413.79361 511.36523 412.06445 511.36523 z "
       transform="scale(0.26458333)" />
    <path
       d="m 115.62361,146.08743 h -3.7194 v -15.36482 q 3.55549,-0.10495 4.55154,-0.10495 3.87068,0 6.12755,1.96125 2.25685,1.95075 2.25685,5.20201 0,8.30645 -9.21654,8.30645 z m -1.19779,-13.47699 v 11.48428 q 0.84477,0.10495 2.09296,0.10495 2.64771,0 4.16069,-1.64661 1.51297,-1.6571 1.51297,-4.59371 0,-5.45372 -5.888,-5.45372 -0.35302,0 -1.87862,0.10495 z"
       id="path18585"
       style="font-size:64px;line-height:1.25;font-family:'Trebuchet MS';-inkscape-font-specification:'Trebuchet MS, Normal';white-space:pre;opacity:0.5;stroke-width:0.367977" />
    <path
       d="m 126.99424,132.11552 q 0.40515,0 0.68627,0.28939 0.28938,0.28112 0.28938,0.67799 0,0.40515 -0.28938,0.69454 -0.28112,0.28112 -0.68627,0.28112 -0.39687,0 -0.68626,-0.28112 -0.28112,-0.28939 -0.28112,-0.69454 0,-0.40514 0.28112,-0.68626 0.28112,-0.28112 0.68626,-0.28112 z m -0.85989,12.20391 v -7.53236 h -1.21543 v -1.32292 h 2.78639 v 8.85528 z"
       id="path18587"
       style="font-size:64px;line-height:1.25;font-family:'Trebuchet MS';-inkscape-font-specification:'Trebuchet MS, Normal';white-space:pre;opacity:0.5;stroke-width:0.264583" />
    <path
       d="m 133.73721,143.30244 q -0.94257,1.18235 -2.88561,1.18235 -1.04179,0 -1.81074,-0.75241 -0.76068,-0.76067 -0.76068,-1.88515 0,-1.34772 1.17409,-2.27377 1.18236,-0.93431 3.00964,-0.93431 0.49609,0 1.12448,0.21498 0,-2.14974 -1.91823,-2.14974 -1.47175,0 -2.2655,0.79375 l -0.66146,-1.31465 q 0.44649,-0.3638 1.23197,-0.62012 0.79375,-0.26458 1.51309,-0.26458 1.92649,0 2.79466,0.87643 0.87643,0.87643 0.87643,2.78639 v 3.175 q 0,1.16583 0.69453,1.55443 v 0.78548 q -0.95911,0 -1.43867,-0.27285 -0.47129,-0.27285 -0.678,-0.90123 z m -0.14882,-3.3321 q -0.74414,-0.16537 -1.0418,-0.16537 -1.19063,0 -1.94303,0.61185 -0.75241,0.61185 -0.75241,1.44694 0,1.3808 1.62884,1.3808 1.19062,0 2.1084,-1.13275 z"
       id="path18589"
       style="font-size:64px;line-height:1.25;font-family:'Trebuchet MS';-inkscape-font-specification:'Trebuchet MS, Normal';white-space:pre;opacity:0.5;stroke-width:0.264583" />
    <path
       d="m 141.0626,136.97724 q -0.51263,-0.35553 -1.03353,-0.35553 -0.83509,0 -1.46348,0.76894 -0.62011,0.76895 -0.62011,1.85208 v 5.0767 h -1.57097 v -8.85528 h 1.57097 v 1.41387 q 0.85989,-1.57923 2.55488,-1.57923 0.42168,0 1.21543,0.14883 z"
       id="path18591"
       style="font-size:64px;line-height:1.25;font-family:'Trebuchet MS';-inkscape-font-specification:'Trebuchet MS, Normal';white-space:pre;opacity:0.5;stroke-width:0.264583" />
    <path
       d="m 152.30775,144.31943 v -5.60586 q 0,-2.09186 -1.81074,-2.09186 -0.57051,0 -1.0666,0.35553 -0.49609,0.34727 -0.67799,0.79375 v 6.54844 h -1.57097 v -6.29212 q 0,-0.6532 -0.49609,-1.02527 -0.48783,-0.38033 -1.29811,-0.38033 -0.47129,0 -1.00873,0.3638 -0.52916,0.3638 -0.75241,0.80202 v 6.5319 h -1.57096 v -8.85528 h 1.02526 l 0.5209,1.02526 q 0.9095,-1.19062 2.27376,-1.19062 1.9017,0 2.66237,1.18236 0.26459,-0.50437 0.98392,-0.84336 0.71934,-0.339 1.48001,-0.339 1.37253,0 2.12494,0.81855 0.75241,0.81029 0.75241,2.28204 v 5.92005 z"
       id="path18593"
       style="font-size:64px;line-height:1.25;font-family:'Trebuchet MS';-inkscape-font-specification:'Trebuchet MS, Normal';white-space:pre;opacity:0.5;stroke-width:0.264583" />
    <path
       id="path18595"
       style="font-size:64px;line-height:1.25;font-family:'Trebuchet MS';-inkscape-font-specification:'Trebuchet MS, Normal';white-space:pre;opacity:0.5;stroke-width:0.264583"
       d="m 156.76452,132.11545 c -0.27009,0 -0.49885,0.0937 -0.68626,0.28112 -0.18742,0.18741 -0.28112,0.41617 -0.28112,0.68626 0,0.2701 0.0937,0.5016 0.28112,0.69453 0.19293,0.18742 0.42168,0.28112 0.68626,0.28112 0.2701,0 0.49885,-0.0937 0.68626,-0.28112 0.19288,-0.19293 0.28939,-0.42443 0.28939,-0.69453 0,-0.26458 -0.0965,-0.49058 -0.28939,-0.67799 -0.18741,-0.19289 -0.41616,-0.28939 -0.68626,-0.28939 z m 0.71107,3.34863 -3.81321,0.0563 c 0.28892,0.37248 0.48515,0.81025 0.5979,1.30431 l 1.64434,-0.0377 v 7.53236 h 1.57097 z" />
    <path
       d="m 163.70547,144.31116 v -0.65319 q -0.81855,0.81855 -2.38125,0.81855 -1.66191,0 -2.69544,-1.19062 -1.03353,-1.19063 -1.03353,-3.175 0,-1.99264 1.19063,-3.39824 1.19062,-1.41387 2.836,-1.41387 1.37253,0 2.08359,0.64492 v -4.10931 h 1.57097 v 12.47676 z m 0,-6.79649 q -0.59531,-0.89296 -1.62884,-0.89296 -1.26504,0 -2.05052,0.94257 -0.77721,0.94258 -0.77721,2.39779 0,3.19981 2.91041,3.19981 0.37207,0 0.89297,-0.23152 0.5209,-0.23977 0.65319,-0.50436 z"
       id="path18597"
       style="font-size:64px;line-height:1.25;font-family:'Trebuchet MS';-inkscape-font-specification:'Trebuchet MS, Normal';white-space:pre;opacity:0.5;stroke-width:0.264583" />
  </g>
</svg>
