<?xml version="1.0" encoding="UTF-8" standalone="no"?>
<!-- Created with Inkscape (http://www.inkscape.org/) -->

<svg
   width="226"
   height="65"
   viewBox="0 0 59.795835 17.197917"
   version="1.1"
   id="svg5"
   sodipodi:docname="DMC2.svg"
   inkscape:version="1.1.1 (3bf5ae0d25, 2021-09-20)"
   xmlns:inkscape="http://www.inkscape.org/namespaces/inkscape"
   xmlns:sodipodi="http://sodipodi.sourceforge.net/DTD/sodipodi-0.dtd"
   xmlns="http://www.w3.org/2000/svg"
   xmlns:svg="http://www.w3.org/2000/svg">
  <sodipodi:namedview
     id="namedview7"
     pagecolor="#ffffff"
     bordercolor="#666666"
     borderopacity="1.0"
     inkscape:pageshadow="2"
     inkscape:pageopacity="0.0"
     inkscape:pagecheckerboard="0"
     inkscape:document-units="mm"
     showgrid="false"
     inkscape:snap-grids="false"
     inkscape:zoom="1.6290957"
     inkscape:cx="247.68343"
     inkscape:cy="139.03419"
     inkscape:window-width="1920"
     inkscape:window-height="1001"
     inkscape:window-x="-9"
     inkscape:window-y="-9"
     inkscape:window-maximized="1"
     inkscape:current-layer="layer1"
     units="px" />
  <defs
     id="defs2">
    <inkscape:path-effect
       effect="offset"
       id="path-effect33842"
       is_visible="true"
       lpeversion="1"
       linejoin_type="miter"
       unit="mm"
       offset="0.5"
       miter_limit="4"
       attempt_force_join="false"
       update_on_knot_move="true" />
    <inkscape:path-effect
       effect="offset"
       id="path-effect33700"
       is_visible="true"
       lpeversion="1"
       linejoin_type="miter"
       unit="mm"
       offset="0.9"
       miter_limit="4"
       attempt_force_join="false"
       update_on_knot_move="true" />
    <inkscape:path-effect
       effect="offset"
       id="path-effect32622"
       is_visible="true"
       lpeversion="1"
       linejoin_type="miter"
       unit="mm"
       offset="0.5"
       miter_limit="4"
       attempt_force_join="false"
       update_on_knot_move="true" />
    <inkscape:path-effect
       effect="offset"
       id="path-effect30177"
       is_visible="true"
       lpeversion="1"
       linejoin_type="miter"
       unit="mm"
       offset="0.5"
       miter_limit="4"
       attempt_force_join="false"
       update_on_knot_move="true" />
    <inkscape:path-effect
       effect="offset"
       id="path-effect30133"
       is_visible="true"
       lpeversion="1"
       linejoin_type="miter"
       unit="mm"
       offset="0"
       miter_limit="4"
       attempt_force_join="false"
       update_on_knot_move="true" />
    <inkscape:path-effect
       effect="offset"
       id="path-effect27980"
       is_visible="true"
       lpeversion="1"
       linejoin_type="miter"
       unit="mm"
       offset="0.6"
       miter_limit="2.3"
       attempt_force_join="false"
       update_on_knot_move="true" />
    <rect
       x="141.79646"
       y="487.38696"
       width="530.35559"
       height="166.96381"
       id="rect15643" />
    <rect
       x="265.42337"
       y="481.07986"
       width="98.151352"
       height="45.61964"
       id="rect5205" />
    <rect
       x="-95.386528"
       y="442.37228"
       width="1050.6342"
       height="262.65854"
       id="rect1815" />
  </defs>
  <g
     inkscape:label="Layer 1"
     inkscape:groupmode="layer"
     id="layer1">
    <text
       xml:space="preserve"
       transform="scale(0.26458333)"
       id="text5203"
       style="font-style:normal;font-weight:normal;font-size:40px;line-height:1.25;font-family:sans-serif;white-space:pre;shape-inside:url(#rect5205);fill:#000000;fill-opacity:1;stroke:none" />
    <rect
       id="rect12565"
       width="27.432268"
       height="24.87192"
       x="-126.18842"
       y="61.814041"
       style="stroke-width:0.264583" />
    <rect
       style="opacity:0.5;fill:#cccccc;stroke-width:0.264583"
       id="rect34460"
       width="159.93539"
       height="82.236282"
       x="34.227001"
       y="270.79001"
       inkscape:transform-center-x="-0.56714679"
       inkscape:transform-center-y="-2.2685872" />
    <path
       d="M 4.2550318,12.388074 H 3.1684539 V 4.992437 q 1.0386946,-0.050495 1.3296766,-0.050495 1.1307778,0 1.7900908,0.9440175 0.6593137,0.9389671 0.6593137,2.5039131 0,3.9981874 -2.6925032,3.9981874 z M 3.9051168,5.9011154 v 5.5277936 q 0.2467821,0.05049 0.6114305,0.05049 0.7734956,0 1.2154939,-0.792575 0.4419974,-0.7976182 0.4419974,-2.2111149 0,-2.6250717 -1.7201079,-2.6250717 -0.1031329,0 -0.5488139,0.050495 z"
       id="path18569"
       style="font-size:64px;line-height:1.25;font-family:'Trebuchet MS';-inkscape-font-specification:'Trebuchet MS, Normal';white-space:pre;opacity:0.5;stroke-width:0.137987" />
    <path
       d="m 7.0201911,9.4613325 q 0,-1.2519572 0.4898799,-2.0192845 0.4935651,-0.7723777 1.2965274,-0.7723777 0.847162,0 1.3149436,0.742088 0.467781,0.7370377 0.467781,2.0495742 0,1.3074875 -0.478831,2.0647225 -0.4788311,0.75218 -1.3038936,0.75218 -0.8434794,0 -1.3149434,-0.762279 Q 7.0201911,10.753677 7.0201911,9.4613325 Z m 0.7366621,0 q 0,2.0344335 1.0497452,2.0344335 0.4898808,0 0.7661294,-0.545209 Q 9.85266,10.405349 9.85266,9.4613325 q 0,-2.0091919 -1.0460616,-2.0091919 -0.478831,0 -0.7661296,0.5351146 -0.2836156,0.53511 -0.2836156,1.4740773 z"
       id="path18571"
       style="font-size:64px;line-height:1.25;font-family:'Trebuchet MS';-inkscape-font-specification:'Trebuchet MS, Normal';white-space:pre;opacity:0.5;stroke-width:0.137987" />
    <path
       d="M 13.138056,12.177273 V 9.0322342 q 0,-0.8632466 -0.191532,-1.2065253 -0.187849,-0.3483218 -0.63353,-0.3483218 -0.239415,0 -0.500931,0.196879 -0.261515,0.19688 -0.401481,0.4846289 v 4.018378 h -0.69983 V 6.7706318 h 0.478831 l 0.220999,0.6966563 q 0.346232,-0.7976178 1.130777,-0.7976178 1.296527,0 1.296527,2.1606345 v 3.3469682 z"
       id="path18573"
       style="font-size:64px;line-height:1.25;font-family:'Trebuchet MS';-inkscape-font-specification:'Trebuchet MS, Normal';white-space:pre;opacity:0.5;stroke-width:0.137987" />
    <path
       d="m 16.484006,11.556345 q -0.419899,0.72189 -1.285477,0.72189 -0.464097,0 -0.806646,-0.459388 -0.338864,-0.464432 -0.338864,-1.150989 0,-0.8228582 0.52303,-1.3882635 0.526714,-0.5704483 1.340727,-0.5704483 0.220999,0 0.500931,0.1312575 0,-1.3125363 -0.85453,-1.3125363 -0.65563,0 -1.009228,0.4846288 L 14.259284,7.2098289 q 0.198898,-0.2221201 0.548814,-0.3786178 0.353598,-0.1615408 0.674046,-0.1615408 0.858212,0 1.24496,0.5351091 0.390432,0.5351091 0.390432,1.7012467 V 10.84454 q 0,0.711805 0.309398,0.949066 v 0.479579 q -0.427264,0 -0.640896,-0.166589 -0.20995,-0.16659 -0.302032,-0.550251 z m -0.0663,-2.0344332 q -0.331498,-0.1009679 -0.464097,-0.1009679 -0.530398,0 -0.86558,0.3735692 -0.335181,0.3735689 -0.335181,0.8834379 0,0.843055 0.725613,0.843055 0.530397,0 0.939245,-0.691607 z"
       id="path18575"
       style="font-size:64px;line-height:1.25;font-family:'Trebuchet MS';-inkscape-font-specification:'Trebuchet MS, Normal';white-space:pre;opacity:0.5;stroke-width:0.137987" />
    <path
       id="path18577"
       style="font-size:64px;line-height:1.25;font-family:'Trebuchet MS';-inkscape-font-specification:'Trebuchet MS, Normal';white-space:pre;opacity:0.5;stroke-width:0.139129"
       d="M 17.505165,4.5544365 V 10.64763 c 0,1.47031 1.035295,1.738081 1.96781,1.707559 l 0.13214,-0.968628 C 19.105383,11.348281 18.479111,11.277192 18.39998,11.172647 18.27766,11.004372 18.216505,10.775524 18.216505,10.486089 V 4.5544365 Z" />
    <path
       d="M 26.395219,13.520393 25.518588,7.2278832 23.906398,13.654128 H 23.654489 L 21.996957,7.2278832 21.140479,13.520393 H 20.18324 l 1.38044,-9.7965194 h 0.458467 l 1.758298,7.1484474 1.622267,-7.1484474 h 0.453429 l 1.496318,9.7965194 z"
       id="path18579"
       style="font-size:64px;line-height:1.25;font-family:'Trebuchet MS';-inkscape-font-specification:'Trebuchet MS, Normal';white-space:pre;opacity:0.5;stroke-width:0.185738"
       inkscape:path-effect="#path-effect30133"
       inkscape:original-d="M 26.395219,13.520393 25.518588,7.2278832 23.906398,13.654128 H 23.654489 L 21.996957,7.2278832 21.140479,13.520393 H 20.18324 l 1.38044,-9.7965194 h 0.458467 l 1.758298,7.1484474 1.622267,-7.1484474 h 0.453429 l 1.496318,9.7965194 z" />
    <path
       id="path18581"
       style="font-size:64px;line-height:1.25;font-family:'Trebuchet MS';-inkscape-font-specification:'Trebuchet MS, Normal';white-space:pre;opacity:0.5;stroke-width:0.137987"
       d="m 27.957303,6.5832616 c -0.213635,0 -0.438314,0.053855 -0.674047,0.1615427 -0.233277,0.1043327 -0.416215,0.2305362 -0.548814,0.378616 l 0.294666,0.8026664 c 0.235732,-0.3230853 0.572137,-0.4846288 1.009228,-0.4846288 0.569685,0 0.854529,0.4375133 0.854529,1.3125363 -0.186624,-0.087503 -0.3536,-0.1312539 -0.500931,-0.1312539 -0.542676,0 -0.989584,0.1901503 -1.340727,0.5704483 -0.04973,0.053764 -0.09594,0.109335 -0.138584,0.1665905 l 0.399408,2.7534869 c 0.11371,0.05198 0.234195,0.07856 0.361657,0.07856 0.577055,0 1.005546,-0.240634 1.285477,-0.721894 0.06139,0.255773 0.162064,0.439196 0.302031,0.550254 0.142423,0.111061 0.356055,0.166592 0.640897,0.166592 V 11.707199 C 29.695827,11.549024 29.592695,11.232672 29.592695,10.758135 V 8.8196202 c 0,-0.7774235 -0.130146,-1.3445079 -0.390432,-1.7012476 -0.257834,-0.3567388 -0.672822,-0.535111 -1.24496,-0.535111 z m 0.471464,2.7512764 c 0.0884,0 0.243099,0.033657 0.464098,0.1009652 V 10.74299 c -0.272567,0.461073 -0.58565,0.691606 -0.939246,0.691606 -0.483745,0 -0.725613,-0.281014 -0.725613,-0.843052 0,-0.339911 0.111726,-0.6343922 0.335182,-0.8834377 0.223453,-0.249044 0.511978,-0.3735683 0.865579,-0.3735683 z" />
    <path
       id="path18583"
       style="font-size:64px;line-height:1.25;font-family:'Trebuchet MS';-inkscape-font-specification:'Trebuchet MS, Normal';white-space:pre;opacity:0.5;stroke-width:0.137987"
       d="m 31.865068,6.5832616 c -0.633528,0 -1.133232,0.2608277 -1.499108,0.7824731 -0.363422,0.5216508 -0.545131,1.2132531 -0.545131,2.0748161 0,0.8447342 0.175571,1.5144652 0.526714,2.0091892 0.351144,0.494727 0.795597,0.742088 1.33336,0.742088 0.402285,0 0.757539,-0.08743 1.065629,-0.262507 v -0.99008 c -0.300908,0.29657 -0.599661,0.444872 -0.896197,0.444872 -0.405164,0 -0.72193,-0.164906 -0.950295,-0.494724 -0.228367,-0.333184 -0.342548,-0.816131 -0.342548,-1.4488382 0,-0.6360763 0.111727,-1.1358463 0.335181,-1.4993193 0.223456,-0.3668332 0.525488,-0.5502558 0.906096,-0.5502558 0.174346,0 0.351143,0.043756 0.530398,0.1312539 0.18171,0.087503 0.308169,0.1800523 0.379381,0.2776518 l 0.03798,-0.074144 V 6.8801597 C 32.680571,6.8397711 32.608202,6.799581 32.528067,6.7599491 32.289879,6.6421571 32.068879,6.5832616 31.865068,6.5832616 Z" />
    <path
       d="M 34.804434,13.170372 H 33.147522 V 3.7892947 q 1.583893,-0.064082 2.027612,-0.064082 1.724302,0 2.729688,1.1974527 1.005378,1.1910408 1.005378,3.1761161 0,5.0715505 -4.105766,5.0715505 z m -0.53359,-8.2284517 v 7.0117927 q 0.376327,0.06408 0.932367,0.06408 1.179497,0 1.853497,-1.005347 0.673995,-1.011752 0.673995,-2.8047163 0,-3.3297991 -2.622976,-3.3297991 -0.157262,0 -0.836883,0.064072 z"
       id="path18585"
       style="font-size:64px;line-height:1.25;font-family:'Trebuchet MS';-inkscape-font-specification:'Trebuchet MS, Normal';white-space:pre;opacity:0.5;stroke-width:0.19191" />
    <path
       d="m 39.8698,4.6397433 q 0.180486,0 0.305718,0.1766893 0.128913,0.1716388 0.128913,0.4139505 0,0.2473667 -0.128913,0.424055 -0.125232,0.1716398 -0.305718,0.1716398 -0.176797,0 -0.305715,-0.1716398 -0.125232,-0.1766883 -0.125232,-0.424055 0,-0.2473602 0.125232,-0.419 Q 39.689319,4.6397433 39.8698,4.6397433 Z M 39.486737,12.09091 V 7.4919846 H 38.945291 V 6.6842687 h 1.241274 V 12.09091 Z"
       id="path18587"
       style="font-size:64px;line-height:1.25;font-family:'Trebuchet MS';-inkscape-font-specification:'Trebuchet MS, Normal';white-space:pre;opacity:0.5;stroke-width:0.137987" />
    <path
       d="m 42.873645,11.469982 q -0.419894,0.72189 -1.285476,0.72189 -0.464095,0 -0.806645,-0.459388 -0.338866,-0.464432 -0.338866,-1.150989 0,-0.8228583 0.523031,-1.3882636 0.526715,-0.5704483 1.340729,-0.5704483 0.220997,0 0.500931,0.1312575 0,-1.3125363 -0.854529,-1.3125363 -0.655633,0 -1.009231,0.4846288 L 40.648922,7.1234658 q 0.198903,-0.2221201 0.548817,-0.3786178 0.353598,-0.1615408 0.674048,-0.1615408 0.858209,0 1.24496,0.5351091 0.39043,0.5351091 0.39043,1.7012467 v 1.938514 q 0,0.711805 0.309398,0.949066 v 0.479579 q -0.427263,0 -0.640897,-0.166589 -0.209949,-0.16659 -0.302033,-0.550251 z m -0.06629,-2.0344333 q -0.3315,-0.1009679 -0.464101,-0.1009679 -0.5304,0 -0.865578,0.3735692 -0.335183,0.373569 -0.335183,0.883438 0,0.843055 0.725614,0.843055 0.530394,0 0.939246,-0.691607 z"
       id="path18589"
       style="font-size:64px;line-height:1.25;font-family:'Trebuchet MS';-inkscape-font-specification:'Trebuchet MS, Normal';white-space:pre;opacity:0.5;stroke-width:0.137987" />
    <path
       d="M 46.136945,7.6080946 Q 45.90858,7.3910231 45.676531,7.3910231 q -0.372014,0 -0.651949,0.4694813 -0.276246,0.4694867 -0.276246,1.1307975 V 12.09091 H 44.048504 V 6.6842687 h 0.699832 v 0.8632466 q 0.383063,-0.9642081 1.138144,-0.9642081 0.187849,0 0.541447,0.090872 z"
       id="path18591"
       style="font-size:64px;line-height:1.25;font-family:'Trebuchet MS';-inkscape-font-specification:'Trebuchet MS, Normal';white-space:pre;opacity:0.5;stroke-width:0.137987" />
    <path
       d="M 51.146413,12.09091 V 8.6682203 q 0,-1.2771972 -0.806645,-1.2771972 -0.25415,0 -0.475146,0.2170715 -0.220998,0.2120275 -0.302031,0.4846279 V 12.09091 H 48.862759 V 8.2492202 q 0,-0.3988148 -0.220997,-0.6259844 -0.217318,-0.2322127 -0.57828,-0.2322127 -0.209949,0 -0.449368,0.222121 -0.235728,0.2221201 -0.335181,0.4896774 V 12.09091 H 46.579105 V 6.6842687 h 0.456731 l 0.232048,0.6259781 q 0.405163,-0.7269396 1.012912,-0.7269396 0.847165,0 1.186027,0.7218965 0.117868,-0.307946 0.438314,-0.5149185 0.320451,-0.206978 0.659312,-0.206978 0.611432,0 0.946614,0.49977 0.335182,0.4947278 0.335182,1.3933126 V 12.09091 Z"
       id="path18593"
       style="font-size:64px;line-height:1.25;font-family:'Trebuchet MS';-inkscape-font-specification:'Trebuchet MS, Normal';white-space:pre;opacity:0.5;stroke-width:0.137987" />
    <path
       id="path18595"
       style="font-size:64px;line-height:1.25;font-family:'Trebuchet MS';-inkscape-font-specification:'Trebuchet MS, Normal';white-space:pre;opacity:0.5;stroke-width:0.137987"
       d="m 53.131807,4.6397014 c -0.12032,0 -0.222228,0.057206 -0.305714,0.1716389 -0.08349,0.1144244 -0.125234,0.2540953 -0.125234,0.419 0,0.1649111 0.04174,0.3062549 0.125234,0.4240496 0.08595,0.1144298 0.187849,0.1716388 0.305714,0.1716388 0.120323,0 0.222226,-0.057206 0.305713,-0.1716388 0.08592,-0.1177947 0.128917,-0.2591385 0.128917,-0.4240496 0,-0.1615408 -0.04299,-0.2995261 -0.128917,-0.4139505 C 53.35403,4.6986197 53.25213,4.6397014 53.131807,4.6397014 Z m 0.316765,2.0445245 -1.698701,0.034377 c 0.128707,0.2274191 0.216123,0.4947023 0.266351,0.7963539 l 0.732518,-0.023021 v 4.5989252 h 0.699832 z" />
    <path
       d="m 56.223847,12.085861 v -0.398809 q -0.364645,0.49977 -1.060795,0.49977 -0.740344,0 -1.200758,-0.726939 -0.460416,-0.726946 -0.460416,-1.9385149 0,-1.2166172 0.5304,-2.0748143 0.530394,-0.8632466 1.263375,-0.8632466 0.611432,0 0.928194,0.3937599 V 4.4681044 h 0.699832 v 7.6177566 z m 0,-4.1496353 q -0.265198,-0.5452026 -0.725612,-0.5452026 -0.563548,0 -0.913462,0.5754923 -0.346231,0.5754968 -0.346231,1.4639838 0,1.9536618 1.296525,1.9536618 0.165749,0 0.397798,-0.141355 0.23205,-0.146393 0.290982,-0.30794 z"
       id="path18597"
       style="font-size:64px;line-height:1.25;font-family:'Trebuchet MS';-inkscape-font-specification:'Trebuchet MS, Normal';white-space:pre;opacity:0.5;stroke-width:0.137987" />
  </g>
</svg>
