<?xml version="1.0" encoding="UTF-8" standalone="no"?>
<!-- Created with Inkscape (http://www.inkscape.org/) -->

<svg
   width="226"
   height="65"
   viewBox="0 0 59.795835 17.197917"
   version="1.1"
   id="svg5"
   sodipodi:docname="DMC5.svg"
   inkscape:version="1.1.1 (3bf5ae0d25, 2021-09-20)"
   xmlns:inkscape="http://www.inkscape.org/namespaces/inkscape"
   xmlns:sodipodi="http://sodipodi.sourceforge.net/DTD/sodipodi-0.dtd"
   xmlns="http://www.w3.org/2000/svg"
   xmlns:svg="http://www.w3.org/2000/svg">
  <sodipodi:namedview
     id="namedview7"
     pagecolor="#ffffff"
     bordercolor="#666666"
     borderopacity="1.0"
     inkscape:pageshadow="2"
     inkscape:pageopacity="0.0"
     inkscape:pagecheckerboard="0"
     inkscape:document-units="mm"
     showgrid="false"
     inkscape:snap-grids="false"
     inkscape:zoom="1.88"
     inkscape:cx="-150"
     inkscape:cy="126.8617"
     inkscape:window-width="1920"
     inkscape:window-height="1001"
     inkscape:window-x="-9"
     inkscape:window-y="-9"
     inkscape:window-maximized="1"
     inkscape:current-layer="layer1"
     units="px"
     inkscape:snap-center="true"
     inkscape:snap-nodes="false" />
  <defs
     id="defs2">
    <inkscape:path-effect
       effect="offset"
       id="path-effect1173"
       is_visible="true"
       lpeversion="1"
       linejoin_type="miter"
       unit="mm"
       offset="0.6"
       miter_limit="4"
       attempt_force_join="false"
       update_on_knot_move="true" />
    <inkscape:path-effect
       effect="offset"
       id="path-effect1161"
       is_visible="true"
       lpeversion="1"
       linejoin_type="miter"
       unit="mm"
       offset="0"
       miter_limit="4"
       attempt_force_join="false"
       update_on_knot_move="true" />
    <inkscape:path-effect
       effect="offset"
       id="path-effect33842"
       is_visible="true"
       lpeversion="1"
       linejoin_type="miter"
       unit="mm"
       offset="0.5"
       miter_limit="4"
       attempt_force_join="false"
       update_on_knot_move="true" />
    <inkscape:path-effect
       effect="offset"
       id="path-effect33700"
       is_visible="true"
       lpeversion="1"
       linejoin_type="miter"
       unit="mm"
       offset="0.9"
       miter_limit="4"
       attempt_force_join="false"
       update_on_knot_move="true" />
    <inkscape:path-effect
       effect="offset"
       id="path-effect32622"
       is_visible="true"
       lpeversion="1"
       linejoin_type="miter"
       unit="mm"
       offset="0.5"
       miter_limit="4"
       attempt_force_join="false"
       update_on_knot_move="true" />
    <inkscape:path-effect
       effect="offset"
       id="path-effect30177"
       is_visible="true"
       lpeversion="1"
       linejoin_type="miter"
       unit="mm"
       offset="0.5"
       miter_limit="4"
       attempt_force_join="false"
       update_on_knot_move="true" />
    <inkscape:path-effect
       effect="offset"
       id="path-effect30133"
       is_visible="true"
       lpeversion="1"
       linejoin_type="miter"
       unit="mm"
       offset="0"
       miter_limit="4"
       attempt_force_join="false"
       update_on_knot_move="true" />
    <inkscape:path-effect
       effect="offset"
       id="path-effect27980"
       is_visible="true"
       lpeversion="1"
       linejoin_type="miter"
       unit="mm"
       offset="0.6"
       miter_limit="2.3"
       attempt_force_join="false"
       update_on_knot_move="true" />
    <rect
       x="141.79646"
       y="487.38696"
       width="530.35559"
       height="166.96381"
       id="rect15643" />
    <rect
       x="265.42337"
       y="481.07986"
       width="98.151352"
       height="45.61964"
       id="rect5205" />
    <rect
       x="-95.386528"
       y="442.37228"
       width="1050.6342"
       height="262.65854"
       id="rect1815" />
    <filter
       inkscape:label="Button"
       inkscape:menu="Bevels"
       inkscape:menu-tooltip="Soft bevel, slightly depressed middle"
       style="color-interpolation-filters:sRGB;"
       id="filter8932"
       x="-4.2887479"
       y="-2.4517397"
       width="9.5774957"
       height="5.9034794">
      <feGaussianBlur
         stdDeviation="2.3"
         in="SourceAlpha"
         result="result0"
         id="feGaussianBlur8906" />
      <feMorphology
         in="SourceAlpha"
         radius="6.6"
         result="result1"
         id="feMorphology8908" />
      <feGaussianBlur
         stdDeviation="8.9"
         in="result1"
         id="feGaussianBlur8910" />
      <feColorMatrix
         values="1 0 0 0 0 0 1 0 0 0 0 0 1 0 0 0 0 0 0.3 0"
         result="result91"
         id="feColorMatrix8912" />
      <feComposite
         in="result0"
         operator="out"
         result="result2"
         in2="result91"
         id="feComposite8914" />
      <feGaussianBlur
         stdDeviation="1.7"
         result="result4"
         id="feGaussianBlur8916" />
      <feDiffuseLighting
         surfaceScale="10"
         id="feDiffuseLighting8920">
        <feDistantLight
           azimuth="225"
           elevation="45"
           id="feDistantLight8918" />
      </feDiffuseLighting>
      <feBlend
         in2="SourceGraphic"
         mode="multiply"
         id="feBlend8922" />
      <feComposite
         in2="SourceAlpha"
         operator="in"
         result="result3"
         id="feComposite8924" />
      <feSpecularLighting
         in="result4"
         surfaceScale="5"
         specularExponent="17.9"
         id="feSpecularLighting8928">
        <feDistantLight
           azimuth="225"
           elevation="45"
           id="feDistantLight8926" />
      </feSpecularLighting>
      <feComposite
         in2="result3"
         operator="atop"
         id="feComposite8930" />
    </filter>
    <filter
       inkscape:label="Button"
       inkscape:menu="Bevels"
       inkscape:menu-tooltip="Soft bevel, slightly depressed middle"
       style="color-interpolation-filters:sRGB;"
       id="filter8979"
       x="-5.3725019"
       y="-3.2778694"
       width="11.745004"
       height="7.5557388">
      <feGaussianBlur
         stdDeviation="2.3"
         in="SourceAlpha"
         result="result0"
         id="feGaussianBlur8953" />
      <feMorphology
         in="SourceAlpha"
         radius="6.6"
         result="result1"
         id="feMorphology8955" />
      <feGaussianBlur
         stdDeviation="8.9"
         in="result1"
         id="feGaussianBlur8957" />
      <feColorMatrix
         values="1 0 0 0 0 0 1 0 0 0 0 0 1 0 0 0 0 0 0.3 0"
         result="result91"
         id="feColorMatrix8959" />
      <feComposite
         in="result0"
         operator="out"
         result="result2"
         in2="result91"
         id="feComposite8961" />
      <feGaussianBlur
         stdDeviation="1.7"
         result="result4"
         id="feGaussianBlur8963" />
      <feDiffuseLighting
         surfaceScale="10"
         id="feDiffuseLighting8967">
        <feDistantLight
           azimuth="225"
           elevation="45"
           id="feDistantLight8965" />
      </feDiffuseLighting>
      <feBlend
         in2="SourceGraphic"
         mode="multiply"
         id="feBlend8969" />
      <feComposite
         in2="SourceAlpha"
         operator="in"
         result="result3"
         id="feComposite8971" />
      <feSpecularLighting
         in="result4"
         surfaceScale="5"
         specularExponent="17.9"
         id="feSpecularLighting8975">
        <feDistantLight
           azimuth="225"
           elevation="45"
           id="feDistantLight8973" />
      </feSpecularLighting>
      <feComposite
         in2="result3"
         operator="atop"
         id="feComposite8977" />
    </filter>
    <filter
       inkscape:label="Button"
       inkscape:menu="Bevels"
       inkscape:menu-tooltip="Soft bevel, slightly depressed middle"
       style="color-interpolation-filters:sRGB;"
       id="filter10226"
       x="-5.372502"
       y="-3.2778692"
       width="11.745004"
       height="7.5557385">
      <feGaussianBlur
         stdDeviation="2.3"
         in="SourceAlpha"
         result="result0"
         id="feGaussianBlur10200" />
      <feMorphology
         in="SourceAlpha"
         radius="6.6"
         result="result1"
         id="feMorphology10202" />
      <feGaussianBlur
         stdDeviation="8.9"
         in="result1"
         id="feGaussianBlur10204" />
      <feColorMatrix
         values="1 0 0 0 0 0 1 0 0 0 0 0 1 0 0 0 0 0 0.3 0"
         result="result91"
         id="feColorMatrix10206" />
      <feComposite
         in="result0"
         operator="out"
         result="result2"
         in2="result91"
         id="feComposite10208" />
      <feGaussianBlur
         stdDeviation="1.7"
         result="result4"
         id="feGaussianBlur10210" />
      <feDiffuseLighting
         surfaceScale="10"
         id="feDiffuseLighting10214">
        <feDistantLight
           azimuth="225"
           elevation="45"
           id="feDistantLight10212" />
      </feDiffuseLighting>
      <feBlend
         in2="SourceGraphic"
         mode="multiply"
         id="feBlend10216" />
      <feComposite
         in2="SourceAlpha"
         operator="in"
         result="result3"
         id="feComposite10218" />
      <feSpecularLighting
         in="result4"
         surfaceScale="5"
         specularExponent="17.9"
         id="feSpecularLighting10222">
        <feDistantLight
           azimuth="225"
           elevation="45"
           id="feDistantLight10220" />
      </feSpecularLighting>
      <feComposite
         in2="result3"
         operator="atop"
         id="feComposite10224" />
    </filter>
  </defs>
  <g
     inkscape:label="Layer 1"
     inkscape:groupmode="layer"
     id="layer1">
    <text
       xml:space="preserve"
       transform="scale(0.26458333)"
       id="text5203"
       style="font-style:normal;font-weight:normal;font-size:40px;line-height:1.25;font-family:sans-serif;white-space:pre;shape-inside:url(#rect5205);fill:#000000;fill-opacity:1;stroke:none" />
    <rect
       style="opacity:0.5;fill:#cccccc;stroke-width:0.264583"
       id="rect34460"
       width="159.93539"
       height="82.236282"
       x="34.227001"
       y="270.79001"
       inkscape:transform-center-x="-0.56714679"
       inkscape:transform-center-y="-2.2685872" />
    <path
       id="path18571"
       style="font-size:64px;line-height:1.25;font-family:'Trebuchet MS';-inkscape-font-specification:'Trebuchet MS, Normal';white-space:pre;opacity:0.5;fill:#4d4d4d;stroke-width:0.137987"
       d="m 10.214056,6.6698769 c -0.5353086,0 -0.9675187,0.2571277 -1.2965619,0.772046 -0.072395,0.1133967 -0.1369227,0.2350463 -0.19327,0.3643188 0.00348,0.096792 0.00517,0.194573 0.00517,0.2935221 0,0.8249478 -0.080171,1.5666977 -0.2408121,2.2210532 0.072331,0.470914 0.2088481,0.869544 0.4103108,1.195276 0.3143094,0.508186 0.7528457,0.762227 1.3151652,0.762227 0.550041,0 0.984575,-0.250955 1.303796,-0.752409 0.319221,-0.504823 0.479041,-1.192815 0.479041,-2.064473 0,-0.8750245 -0.156335,-1.5581289 -0.468189,-2.0494874 C 11.21685,6.9172253 10.77883,6.6698769 10.214056,6.6698769 Z m 0,0.7823814 c 0.697374,0 1.045931,0.6697184 1.045931,2.0091797 0,0.629344 -0.09347,1.125843 -0.280087,1.489315 -0.184165,0.363472 -0.439257,0.545186 -0.765844,0.545186 -0.6998305,0 -1.0500655,-0.678212 -1.0500655,-2.034501 0,-0.6259783 0.094627,-1.1175886 0.2837037,-1.4743287 0.1915324,-0.356743 0.4471408,-0.534851 0.7663618,-0.534851 z" />
    <path
       d="M 14.545414,12.177273 V 9.0322342 q 0,-0.8632466 -0.191532,-1.2065253 -0.187849,-0.3483218 -0.63353,-0.3483218 -0.239415,0 -0.500931,0.196879 -0.261515,0.19688 -0.401481,0.4846289 v 4.018378 H 12.11811 V 6.7706318 h 0.478831 l 0.220999,0.6966563 q 0.346232,-0.7976178 1.130777,-0.7976178 1.296527,0 1.296527,2.1606345 v 3.3469682 z"
       id="path18573"
       style="font-size:64px;line-height:1.25;font-family:'Trebuchet MS';-inkscape-font-specification:'Trebuchet MS, Normal';white-space:pre;opacity:0.5;fill:#4d4d4d;stroke-width:0.137987" />
    <path
       d="m 17.891364,11.556345 q -0.419899,0.72189 -1.285477,0.72189 -0.464097,0 -0.806646,-0.459388 -0.338864,-0.464432 -0.338864,-1.150989 0,-0.8228582 0.52303,-1.3882635 0.526714,-0.5704483 1.340727,-0.5704483 0.220999,0 0.500931,0.1312575 0,-1.3125363 -0.85453,-1.3125363 -0.65563,0 -1.009228,0.4846288 L 15.666642,7.2098289 q 0.198898,-0.2221201 0.548814,-0.3786178 0.353598,-0.1615408 0.674046,-0.1615408 0.858212,0 1.24496,0.5351091 0.390432,0.5351091 0.390432,1.7012467 V 10.84454 q 0,0.711805 0.309398,0.949066 v 0.479579 q -0.427264,0 -0.640896,-0.166589 -0.20995,-0.16659 -0.302032,-0.550251 z m -0.0663,-2.0344332 q -0.331498,-0.1009679 -0.464097,-0.1009679 -0.530398,0 -0.86558,0.3735692 -0.335181,0.3735689 -0.335181,0.8834379 0,0.843055 0.725613,0.843055 0.530397,0 0.939245,-0.691607 z"
       id="path18575"
       style="font-size:64px;line-height:1.25;font-family:'Trebuchet MS';-inkscape-font-specification:'Trebuchet MS, Normal';white-space:pre;opacity:0.5;fill:#4d4d4d;stroke-width:0.137987" />
    <path
       id="path18577"
       style="font-size:64px;line-height:1.25;font-family:'Trebuchet MS';-inkscape-font-specification:'Trebuchet MS, Normal';white-space:pre;opacity:0.5;fill:#4d4d4d;stroke-width:0.139129"
       d="M 18.912523,3.1636479 V 10.64763 c 0,1.47031 1.035295,1.738081 1.96781,1.707559 l 0.13214,-0.968628 c -0.499732,-0.03828 -1.126004,-0.109369 -1.205135,-0.213914 -0.12232,-0.168275 -0.183475,-0.397123 -0.183475,-0.686558 V 3.1636479 Z"
       sodipodi:nodetypes="cscccscc" />
    <path
       d="M 28.117158,15.755589 27.190856,6.6318309 25.578666,13.058076 H 25.326757 L 23.669225,6.6318309 22.812747,12.924341 h -0.957239 l 1.38044,-9.7965197 h 0.458467 l 1.758298,7.1484477 1.622267,-7.1484477 h 0.453429 l 1.545989,12.6277677 z"
       id="path18579"
       style="font-size:64px;line-height:1.25;font-family:'Trebuchet MS';-inkscape-font-specification:'Trebuchet MS, Normal';white-space:pre;opacity:0.5;fill:#4d4d4d;stroke-width:0.185738;filter:url(#filter8932)"
       sodipodi:nodetypes="cccccccccccccc"
       inkscape:original-d="M 28.117158,15.755589 27.190856,6.6318309 25.578666,13.058076 H 25.326757 L 23.669225,6.6318309 22.812747,12.924341 h -0.957239 l 1.38044,-9.7965197 h 0.458467 l 1.758298,7.1484477 1.622267,-7.1484477 h 0.453429 l 1.545989,12.6277677 z"
       inkscape:path-effect="#path-effect30133" />
    <path
       id="path18581"
       style="font-size:64px;line-height:1.25;font-family:'Trebuchet MS';-inkscape-font-specification:'Trebuchet MS, Normal';white-space:pre;opacity:0.5;fill:#4d4d4d;stroke-width:0.137987"
       d="m 29.869648,6.5501526 c -0.213635,0 -0.438314,0.053855 -0.674047,0.1615427 -0.233277,0.1043327 -0.416215,0.2305362 -0.548814,0.378616 l 0.294666,0.8026664 c 0.235732,-0.3230853 0.572137,-0.4846288 1.009228,-0.4846288 0.569685,0 0.854529,0.4375133 0.854529,1.3125363 -0.186624,-0.087503 -0.3536,-0.1312539 -0.500931,-0.1312539 -0.542676,0 -0.989584,0.1901503 -1.340727,0.5704483 -0.04973,0.053764 -0.09594,0.109335 -0.138584,0.1665905 l 0.399408,2.7534869 c 0.11371,0.05198 0.234195,0.07856 0.361657,0.07856 0.577055,0 1.005546,-0.240634 1.285477,-0.721894 0.06139,0.255773 0.162064,0.439196 0.302031,0.550254 0.142423,0.111061 0.356055,0.166592 0.640897,0.166592 V 11.67409 C 31.608172,11.515915 31.50504,11.199563 31.50504,10.725026 V 8.7865112 c 0,-0.7774235 -0.130146,-1.3445079 -0.390432,-1.7012476 -0.257834,-0.3567388 -0.672822,-0.535111 -1.24496,-0.535111 z m 0.471464,2.7512764 c 0.0884,0 0.243099,0.033657 0.464098,0.1009652 v 1.3074868 c -0.272567,0.461073 -0.58565,0.691606 -0.939246,0.691606 -0.483745,0 -0.725613,-0.281014 -0.725613,-0.843052 0,-0.339911 0.111726,-0.6343922 0.335182,-0.8834377 0.223453,-0.249044 0.511978,-0.3735683 0.865579,-0.3735683 z" />
    <path
       id="path18583"
       style="font-size:64px;line-height:1.25;font-family:'Trebuchet MS';-inkscape-font-specification:'Trebuchet MS, Normal';white-space:pre;opacity:0.5;fill:#4d4d4d;stroke-width:0.137987"
       d="m 33.777413,6.5501526 c -0.633528,0 -1.133232,0.2608277 -1.499108,0.7824731 -0.363422,0.5216508 -0.545131,1.2132531 -0.545131,2.0748161 0,0.8447342 0.175571,1.5144652 0.526714,2.0091892 0.351144,0.494727 0.795597,0.742088 1.33336,0.742088 0.402285,0 0.757539,-0.08743 1.065629,-0.262507 v -0.99008 c -0.300908,0.29657 -0.599661,0.444872 -0.896197,0.444872 -0.405164,0 -0.72193,-0.164906 -0.950295,-0.494724 -0.228367,-0.333184 -0.342548,-0.816131 -0.342548,-1.4488382 0,-0.6360763 0.111727,-1.1358463 0.335181,-1.4993193 0.223456,-0.3668332 0.525488,-0.5502558 0.906096,-0.5502558 0.174346,0 0.351143,0.043756 0.530398,0.1312539 0.18171,0.087503 0.308169,0.1800523 0.379381,0.2776518 l 0.03798,-0.074144 V 6.8470507 C 34.592916,6.8066621 34.520547,6.766472 34.440412,6.7268401 34.202224,6.6090481 33.981224,6.5501526 33.777413,6.5501526 Z" />
    <path
       d="M 36.737997,12.31842 H 35.081085 V 2.9373421 q 1.583893,-0.064082 2.027612,-0.064082 1.724302,0 2.729688,1.1974527 1.005378,1.1910408 1.005378,3.1761161 0,5.0715511 -4.105766,5.0715511 z m -0.53359,-8.2284523 v 7.0117933 q 0.376327,0.06408 0.932367,0.06408 1.179497,0 1.853497,-1.005347 0.673995,-1.0117526 0.673995,-2.8047169 0,-3.3297991 -2.622976,-3.3297991 -0.157262,0 -0.836883,0.064072 z"
       id="path18585"
       style="font-size:64px;line-height:1.25;font-family:'Trebuchet MS';-inkscape-font-specification:'Trebuchet MS, Normal';white-space:pre;opacity:0.5;fill:#4d4d4d;stroke-width:0.19191;filter:url(#filter10226)"
       inkscape:transform-center-x="-0.42220746"
       inkscape:transform-center-y="-0.28147389" />
    <path
       d="m 42.204353,4.1844268 q 0.180486,0 0.305718,0.1766893 0.128913,0.1716388 0.128913,0.4139505 0,0.2473667 -0.128913,0.424055 -0.125232,0.1716398 -0.305718,0.1716398 -0.176797,0 -0.305715,-0.1716398 -0.125232,-0.1766883 -0.125232,-0.424055 0,-0.2473602 0.125232,-0.419 0.125234,-0.1716398 0.305715,-0.1716398 z M 41.82129,11.635594 V 7.0366681 H 41.279844 V 6.2289522 h 1.241274 v 5.4066418 z"
       id="path18587"
       style="font-size:64px;line-height:1.25;font-family:'Trebuchet MS';-inkscape-font-specification:'Trebuchet MS, Normal';white-space:pre;opacity:0.5;fill:#4d4d4d;stroke-width:0.137987" />
    <path
       d="m 45.208198,11.014666 q -0.419894,0.72189 -1.285476,0.72189 -0.464095,0 -0.806645,-0.459388 -0.338866,-0.464432 -0.338866,-1.150989 0,-0.8228588 0.523031,-1.3882641 0.526715,-0.5704483 1.340729,-0.5704483 0.220997,0 0.500931,0.1312575 0,-1.3125363 -0.854529,-1.3125363 -0.655633,0 -1.009231,0.4846288 L 42.983475,6.6681493 q 0.198903,-0.2221201 0.548817,-0.3786178 0.353598,-0.1615408 0.674048,-0.1615408 0.858209,0 1.24496,0.5351091 0.39043,0.5351091 0.39043,1.7012467 v 1.9385145 q 0,0.711805 0.309398,0.949066 v 0.479579 q -0.427263,0 -0.640897,-0.166589 -0.209949,-0.16659 -0.302033,-0.550251 z m -0.06629,-2.0344338 q -0.3315,-0.1009679 -0.464101,-0.1009679 -0.5304,0 -0.865578,0.3735692 -0.335183,0.373569 -0.335183,0.8834385 0,0.843055 0.725614,0.843055 0.530394,0 0.939246,-0.691607 z"
       id="path18589"
       style="font-size:64px;line-height:1.25;font-family:'Trebuchet MS';-inkscape-font-specification:'Trebuchet MS, Normal';white-space:pre;opacity:0.5;fill:#4d4d4d;stroke-width:0.137987" />
    <path
       d="m 48.471498,7.1527781 q -0.228365,-0.2170715 -0.460414,-0.2170715 -0.372014,0 -0.651949,0.4694813 -0.276246,0.4694867 -0.276246,1.1307975 V 11.635594 H 46.383057 V 6.2289522 h 0.699832 v 0.8632466 q 0.383063,-0.9642081 1.138144,-0.9642081 0.187849,0 0.541447,0.090872 z"
       id="path18591"
       style="font-size:64px;line-height:1.25;font-family:'Trebuchet MS';-inkscape-font-specification:'Trebuchet MS, Normal';white-space:pre;opacity:0.5;fill:#4d4d4d;stroke-width:0.137987" />
    <path
       d="M 53.480966,11.635594 V 8.2129038 q 0,-1.2771972 -0.806645,-1.2771972 -0.25415,0 -0.475146,0.2170715 -0.220998,0.2120275 -0.302031,0.4846279 v 3.998188 H 51.197312 V 7.7939037 q 0,-0.3988148 -0.220997,-0.6259844 -0.217318,-0.2322127 -0.57828,-0.2322127 -0.209949,0 -0.449368,0.222121 -0.235728,0.2221201 -0.335181,0.4896774 v 3.988089 H 48.913658 V 6.2289522 h 0.456731 l 0.232048,0.6259781 q 0.405163,-0.7269396 1.012912,-0.7269396 0.847165,0 1.186027,0.7218965 0.117868,-0.307946 0.438314,-0.5149185 0.320451,-0.206978 0.659312,-0.206978 0.611432,0 0.946614,0.49977 0.335182,0.4947278 0.335182,1.3933126 v 3.6145207 z"
       id="path18593"
       style="font-size:64px;line-height:1.25;font-family:'Trebuchet MS';-inkscape-font-specification:'Trebuchet MS, Normal';white-space:pre;opacity:0.5;fill:#4d4d4d;stroke-width:0.137987" />
    <path
       id="path18595"
       style="font-size:64px;line-height:1.25;font-family:'Trebuchet MS';-inkscape-font-specification:'Trebuchet MS, Normal';white-space:pre;opacity:0.5;fill:#4d4d4d;stroke-width:0.137987"
       d="m 55.46636,4.1843849 c -0.12032,0 -0.222228,0.057206 -0.305714,0.1716389 -0.08349,0.1144244 -0.125234,0.2540953 -0.125234,0.419 0,0.1649111 0.04174,0.3062549 0.125234,0.4240496 0.08595,0.1144298 0.187849,0.1716388 0.305714,0.1716388 0.120323,0 0.222226,-0.057206 0.305713,-0.1716388 0.08592,-0.1177947 0.128917,-0.2591385 0.128917,-0.4240496 0,-0.1615408 -0.04299,-0.2995261 -0.128917,-0.4139505 -0.08349,-0.1177701 -0.18539,-0.1766884 -0.305713,-0.1766884 z m 0.316765,2.0445245 -1.698701,0.034377 c 0.128707,0.2274191 0.216123,0.4947023 0.266351,0.7963539 l 0.732518,-0.023021 v 4.5989257 h 0.699832 z" />
    <path
       d="m 58.5584,11.630545 v -0.398809 q -0.364645,0.49977 -1.060795,0.49977 -0.740344,0 -1.200758,-0.726939 -0.460416,-0.726946 -0.460416,-1.9385154 0,-1.2166172 0.5304,-2.0748143 0.530394,-0.8632466 1.263375,-0.8632466 0.611432,0 0.928194,0.3937599 V 4.0127879 h 0.699832 v 7.6177571 z m 0,-4.1496358 q -0.265198,-0.5452026 -0.725612,-0.5452026 -0.563548,0 -0.913462,0.5754923 -0.346231,0.5754968 -0.346231,1.4639838 0,1.9536623 1.296525,1.9536623 0.165749,0 0.397798,-0.141355 0.23205,-0.146393 0.290982,-0.30794 z"
       id="path18597"
       style="font-size:64px;line-height:1.25;font-family:'Trebuchet MS';-inkscape-font-specification:'Trebuchet MS, Normal';white-space:pre;opacity:0.5;fill:#4d4d4d;stroke-width:0.137987" />
    <path
       id="path6808"
       style="color:#000000;fill:#000000;fill-opacity:1;stroke-width:0.264582;stroke-linecap:round;-inkscape-stroke:none"
       d="m 0.10036889,2.7047804 c -0.02023,4e-6 -0.03982,0.0086 -0.05423,0.02417 l -0.09154,0.225105 0.199975,-0.10843 c 0.02991,-0.03222 0.02991,-0.08445 0,-0.116672 -0.01432,-0.0155 -0.03391,-0.02417 -0.05423,-0.02417 z m 0.645004,0 c -0.02023,4e-6 -0.03982,0.0086 -0.05423,0.02417 l -0.632934,0.797735 c -0.02991,0.03222 0.741371,-0.681057 0.741371,-0.681057 0.02991,-0.03222 0.02991,-0.08445 0,-0.116672 -0.01432,-0.0155 -0.03391,-0.02417 -0.05423,-0.02417 z m 0.64503401,0 c -0.02023,4e-6 -0.03982,0.0086 -0.05423,0.02417 l -1.27796801,1.491813 c -0.02991,0.03222 1.38640501,-1.375135 1.38640501,-1.375135 0.02991,-0.03222 0.02991,-0.08445 0,-0.116672 -0.01432,-0.0155 -0.03391,-0.02417 -0.05423,-0.02417 z m 0.645003,0 c -0.02023,4e-6 -0.03982,0.0086 -0.05423,0.02417 l -1.92297001,2.185859 c -0.02991,0.03222 2.03140701,-2.069181 2.03140701,-2.069181 0.02991,-0.03222 0.02991,-0.08445 0,-0.116672 -0.01432,-0.0155 -0.03391,-0.02417 -0.05423,-0.02417 z m 0.645011,0 c -0.02023,4e-6 -0.03982,0.0086 -0.05423,0.02417 l -2.56798101,2.879905 c -0.02991,0.03222 2.67641101,-2.763227 2.67641101,-2.763227 0.02991,-0.03222 0.02991,-0.08445 0,-0.116672 -0.01432,-0.0155 -0.03391,-0.02417 -0.05423,-0.02417 z m 0.645034,0 c -0.02023,4e-6 -0.03982,0.0086 -0.05423,0.02417 l -3.21301501,3.573983 c -0.02991,0.03222 3.32144501,-3.457305 3.32144501,-3.457305 0.02991,-0.03222 0.02991,-0.08445 0,-0.116672 -0.01432,-0.0155 -0.03391,-0.02417 -0.05423,-0.02417 z m 0.645004,0 c -0.02023,4e-6 -0.03982,0.0086 -0.05423,0.02417 l -3.85802001,4.268029 c -0.02991,0.03222 3.96644801,-4.151351 3.96644801,-4.151351 0.02991,-0.03222 0.02991,-0.08445 0,-0.116672 -0.01432,-0.0155 -0.03391,-0.02417 -0.05423,-0.02417 z m 0.645034,0 c -0.02023,4e-6 -0.03982,0.0086 -0.05423,0.02417 l -1.238492,1.449332 c -0.02991,0.03222 1.346926,-1.332654 1.346926,-1.332654 0.02991,-0.03222 0.02991,-0.08445 0,-0.116672 -0.01432,-0.0155 -0.03391,-0.02417 -0.05423,-0.02417 z m 0.645009,0 c -0.02023,4e-6 -0.03982,0.0086 -0.05423,0.02417 l -1.238495,1.449332 c -0.02991,0.03222 1.346928,-1.332654 1.346928,-1.332654 0.02991,-0.03222 0.02991,-0.08445 0,-0.116672 -0.01432,-0.0155 -0.03391,-0.02417 -0.05423,-0.02417 z m 0.643898,0.0012 c -0.46076,0.401132 -0.910097,0.945092 -1.34582,1.413941 -0.02991,0.03222 -0.02991,0.08447 0.152612,-0.05358 0.182542,-0.138029 1.401564,-1.159891 1.247414,-1.336197 -0.01432,-0.01549 -0.03391,-0.02417 -0.05423,-0.02417 z m 0.618225,0.02882 c -0.02023,3e-6 -0.03982,0.0086 -0.05423,0.02417 l -1.218691,1.428027 c -0.02991,0.03222 1.327126,-1.311348 1.327126,-1.311348 0.02991,-0.03222 0.02991,-0.08445 0,-0.116672 -0.01432,-0.0155 -0.03391,-0.02417 -0.05423,-0.02417 z m 0.577187,0.07297 c -0.02023,3e-6 -0.03982,0.0086 -0.05423,0.02417 l -1.223877,1.433605 c -0.02991,0.03222 1.332337,-1.316924 1.332337,-1.316924 0.02991,-0.03222 0.02991,-0.08445 0,-0.116673 -0.01432,-0.01549 -0.03391,-0.02418 -0.05423,-0.02417 z m 0.532888,0.120682 c -0.02023,1e-6 -0.03982,0.0086 -0.05423,0.02417 l -1.293879,1.508929 c -0.02991,0.03222 1.40231,-1.39225 1.40231,-1.39225 0.02991,-0.03222 0.02991,-0.08445 0,-0.116672 -0.01432,-0.01549 -0.03391,-0.02417 -0.05423,-0.02417 z m 0.485802,0.171311 c -0.02023,3e-6 -0.03982,0.0086 -0.05423,0.02417 l -1.492596,1.722758 c -0.03,0.03222 1.601024,-1.606043 1.601024,-1.606043 0.03,-0.03224 0.03,-0.08449 0,-0.116704 -0.01432,-0.01549 -0.03391,-0.02417 -0.05423,-0.02417 z m 0.436519,0.224364 c -0.02023,3e-6 -0.03982,0.0086 -0.05423,0.02417 l -1.895807,2.15663 c -0.02991,0.03222 2.004237,-2.039946 2.004237,-2.039946 0.02991,-0.03222 0.02991,-0.08445 0,-0.116673 -0.01432,-0.01549 -0.03391,-0.02417 -0.05423,-0.02417 z m 0.377874,0.287443 c -0.02023,3e-6 -0.03982,0.0086 -0.05423,0.02417 l -2.273681,2.563232 c -0.02991,0.03222 2.382112,-2.446549 2.382112,-2.446549 0.02991,-0.03222 0.02991,-0.08445 0,-0.116672 -0.01432,-0.01549 -0.03391,-0.02417 -0.05423,-0.02417 z m 0.296939,0.374566 c -0.02023,3e-6 -0.03982,0.0086 -0.05423,0.02417 l -2.57062,2.882744 c -0.02991,0.03222 2.679048,-2.766062 2.679048,-2.766062 0.02991,-0.03222 0.02991,-0.08445 0,-0.116672 -0.01432,-0.0155 -0.03391,-0.02417 -0.05423,-0.02417 z m 0.176861,0.503749 c -0.02023,3e-6 -0.03982,0.0086 -0.05423,0.02417 l -2.747469,3.073042 c -0.02991,0.03222 2.8559,-2.956358 2.8559,-2.956358 0.02991,-0.03222 0.02991,-0.08445 0,-0.116673 -0.01432,-0.01549 -0.03391,-0.02417 -0.05423,-0.02417 z m -6.537557,0.09402 c -0.02023,4e-6 -0.03982,0.0086 -0.05423,0.02417 l -2.75668801,3.082967 c -0.02991,0.03222 2.86512701,-2.966287 2.86512701,-2.966287 0.02991,-0.03222 0.02991,-0.08445 0,-0.116672 -0.01432,-0.0155 -0.03391,-0.02417 -0.05423,-0.02417 z m 6.558795,0.577174 c -0.02023,4e-6 -0.03982,0.0086 -0.05423,0.02417 l -2.768708,3.095892 c -0.02991,0.03222 2.877167,-2.979209 2.877167,-2.979209 0.02991,-0.03222 0.02991,-0.08445 0,-0.116672 -0.01432,-0.0155 -0.03391,-0.02418 -0.05423,-0.02417 z m -6.558792,0.116865 c -0.02023,3e-6 -0.03982,0.0086 -0.05423,0.02417 l -2.75669001,3.082965 c -0.02991,0.03222 2.86512701,-2.966286 2.86512701,-2.966286 0.02991,-0.03222 0.02991,-0.08445 0,-0.116673 -0.01432,-0.01549 -0.03391,-0.02417 -0.05423,-0.02417 z m 6.558792,0.577204 c -0.02023,3e-6 -0.03982,0.0086 -0.05423,0.02417 l -2.768708,3.095891 c -0.02991,0.03222 2.877138,-2.97921 2.877138,-2.97921 0.02991,-0.03222 0.02991,-0.08445 0,-0.116673 -0.01432,-0.01549 -0.03391,-0.02417 -0.05423,-0.02417 z m -6.558792,0.11688 c -0.02023,-5e-6 -0.03989,0.0086 -0.05423,0.02417 l -2.75666001,3.082967 c -0.02991,0.03222 2.86512701,-2.966285 2.86512701,-2.966285 0.02991,-0.03222 0.02991,-0.08445 0,-0.116672 -0.01432,-0.0155 -0.03391,-0.02417 -0.05423,-0.02417 z m 6.558792,0.577206 c -0.02023,-5e-6 -0.03982,0.0086 -0.05423,0.02414 l -2.768708,3.095925 c -0.02991,0.03222 2.877138,-2.979211 2.877138,-2.979211 0.03,-0.03222 0.03,-0.08449 0,-0.116704 -0.01432,-0.0155 -0.03391,-0.02415 -0.05423,-0.02414 z m -6.558792,0.116848 c -0.02023,5e-6 -0.03982,0.0086 -0.05423,0.02417 l -2.75669001,3.082965 c -0.02991,0.03224 2.86512701,-2.966284 2.86512701,-2.966284 0.02991,-0.03222 0.02991,-0.08445 0,-0.116673 -0.01432,-0.01549 -0.03391,-0.02417 -0.05423,-0.02417 z m 6.558792,0.577207 c -0.02023,4e-6 -0.03982,0.0086 -0.05423,0.02417 l -2.768708,3.0958936 c -0.02991,0.03222 2.877138,-2.9792116 2.877138,-2.9792116 0.02991,-0.03222 0.02991,-0.08445 0,-0.116673 -0.01432,-0.01549 -0.03391,-0.02417 -0.05423,-0.02417 z m -6.558792,0.116848 c -0.02023,4e-6 -0.03982,0.0086 -0.05423,0.02417 L 0.05822089,10.467272 c -0.02991,0.03224 2.86512701,-2.9662856 2.86512701,-2.9662856 0.02991,-0.03222 0.02991,-0.08445 0,-0.116673 -0.01432,-0.01549 -0.03391,-0.02417 -0.05423,-0.02417 z m 6.558792,0.577205 c -0.02023,5e-6 -0.03982,0.0086 -0.05423,0.02418 l -2.768708,3.0958906 c -0.02991,0.03222 2.877138,-2.9792116 2.877138,-2.9792116 0.02991,-0.03222 0.02991,-0.08445 0,-0.116673 -0.01432,-0.01549 -0.03391,-0.02417 -0.05423,-0.02418 z m -6.558792,0.116864 c -0.02023,3e-6 -0.03982,0.0086 -0.05423,0.02418 L 0.05822089,11.161353 c -0.02991,0.03224 2.86512701,-2.9662876 2.86512701,-2.9662876 0.02991,-0.03222 0.02991,-0.08445 0,-0.116672 -0.01432,-0.0155 -0.03391,-0.02417 -0.05423,-0.02419 z m 6.558792,0.577206 c -0.02023,4e-6 -0.03982,0.0086 -0.05423,0.02417 l -4.503031,4.9620796 c -0.02991,0.03222 4.611461,-4.8453956 4.611461,-4.8453956 0.02991,-0.03222 0.02991,-0.08445 0,-0.116673 -0.01432,-0.01549 -0.03391,-0.02417 -0.05423,-0.02418 z m -6.558792,0.116832 c -0.02023,3e-6 -0.03982,0.0088 -0.05423,0.02418 L 0.05825089,11.855391 c -0.02991,0.03222 2.86512701,-2.9662856 2.86512701,-2.9662856 0.02991,-0.03224 0.02991,-0.08445 0,-0.116673 -0.01432,-0.01549 -0.03391,-0.02417 -0.05423,-0.02417 z m 6.558792,0.577206 c -0.02023,3e-6 -0.03982,0.0086 -0.05423,0.02417 l -3.858027,4.2680336 c -0.02991,0.03224 3.966457,-4.1513516 3.966457,-4.1513516 0.02991,-0.03222 0.02991,-0.08445 0,-0.116672 -0.01432,-0.0155 -0.03391,-0.02417 -0.05423,-0.02419 z m -6.558792,0.11688 c -0.02023,3e-6 -0.03982,0.0086 -0.05423,0.02417 L 0.05822089,12.549459 c -0.02991,0.03224 2.86512701,-2.9662846 2.86512701,-2.9662846 0.02991,-0.03222 0.02991,-0.08445 0,-0.116672 -0.01432,-0.0155 -0.03391,-0.02417 -0.05423,-0.02417 z m 6.558792,0.5772056 c -0.02023,3e-6 -0.03982,0.0088 -0.05423,0.02417 l -3.205952,3.566371 c -0.02991,0.03222 3.314382,-3.449697 3.314382,-3.449697 0.02991,-0.03222 0.02991,-0.08445 0,-0.116672 -0.01432,-0.0155 -0.03391,-0.02417 -0.05423,-0.02417 z m -6.558792,0.116848 c -0.02023,3e-6 -0.03982,0.0088 -0.05423,0.02417 l -2.75669001,3.082965 c -0.02991,0.03222 2.86512701,-2.966286 2.86512701,-2.966286 0.02991,-0.03222 0.02991,-0.08445 0,-0.116672 -0.01432,-0.0155 -0.03391,-0.02417 -0.05423,-0.02417 z m 6.558792,0.577207 c -0.02023,2e-6 -0.03982,0.0086 -0.05423,0.02417 l -2.506726,2.813987 c -0.02991,0.03222 2.615156,-2.697313 2.615156,-2.697313 0.02991,-0.03222 0.02991,-0.08445 0,-0.116673 -0.01432,-0.01549 -0.03391,-0.02417 -0.05423,-0.02417 z m -6.558792,0.116864 c -0.02023,5e-6 -0.03982,0.0088 -0.05423,0.02417 l -2.45936701,2.763041 c -0.02991,0.03224 2.56780401,-2.646354 2.56780401,-2.646354 0.02991,-0.03222 0.02991,-0.08445 0,-0.116673 -0.01432,-0.01549 -0.03391,-0.02417 -0.05423,-0.02417 z m 6.558792,0.577206 c -0.02023,5e-6 -0.03982,0.0088 -0.05423,0.02417 l -1.712612,1.959502 c -0.02991,0.03224 1.821042,-1.842817 1.821042,-1.842817 0.02991,-0.03224 0.02991,-0.08445 0,-0.116673 -0.01432,-0.01549 -0.03391,-0.02417 -0.05423,-0.02417 z m -6.558792,0.116832 c -0.02023,4e-6 -0.03982,0.0088 -0.05423,0.02417 l -1.814356,2.068983 c -0.02991,0.03224 1.922793,-1.952306 1.922793,-1.952306 0.02991,-0.03224 0.02991,-0.08445 0,-0.116672 -0.01432,-0.0155 -0.03391,-0.02417 -0.05423,-0.02417 z m 2.690616,0.575111 c -0.02023,3e-6 -0.03982,0.0088 -0.05423,0.02417 l -1.279886,1.493877 c -0.02991,0.03222 1.388317,-1.377198 1.388317,-1.377198 0.02991,-0.03222 0.02991,-0.08445 0,-0.116673 -0.01432,-0.01549 -0.03391,-0.02417 -0.05423,-0.02417 z m -2.621479,0.04453 c -0.02023,2e-6 -0.03982,0.0086 -0.05423,0.02417 l -1.238489,1.44933 c -0.03,0.03224 1.346919,-1.332621 1.346919,-1.332621 0.03,-0.03224 0.03,-0.08449 0,-0.116704 -0.01432,-0.0155 -0.03391,-0.02415 -0.05423,-0.02417 z m 0.645032,0 c -0.02023,2e-6 -0.03982,0.0086 -0.05423,0.02417 l -1.238487,1.449316 c -0.02991,0.03224 1.346926,-1.332653 1.346926,-1.332653 0.02991,-0.03222 0.02991,-0.08445 0,-0.116673 -0.01432,-0.01549 -0.03391,-0.02415 -0.05423,-0.02417 z m 0.645034,0 c -0.02023,-6e-6 -0.03989,0.0086 -0.05423,0.02417 l -1.23849,1.449316 c -0.02991,0.03224 1.346956,-1.332653 1.346956,-1.332653 0.02991,-0.03222 0.02991,-0.08445 0,-0.116673 -0.01432,-0.01549 -0.03391,-0.02415 -0.05423,-0.02417 z m 0.645011,0 c -0.02023,2e-6 -0.03982,0.0086 -0.05423,0.02417 l -1.238496,1.449316 c -0.02991,0.03224 1.346926,-1.332653 1.346926,-1.332653 0.02991,-0.03222 0.02991,-0.08445 0,-0.116673 -0.01432,-0.01549 -0.03391,-0.02415 -0.05423,-0.02417 z m 4.249189,0.286164 c -0.02023,2e-6 -0.03982,0.0086 -0.05423,0.02417 l -0.794234,0.971433 c -0.02991,0.03224 0.902671,-0.854754 0.902671,-0.854754 0.02991,-0.03222 0.02991,-0.08445 0,-0.116672 -0.01432,-0.01549 -0.03391,-0.02417 -0.05423,-0.02417 z" />
  </g>
</svg>
