<?xml version="1.0" encoding="UTF-8" standalone="no"?>
<svg
   height="32.999001"
   style="clip-rule:evenodd;fill-rule:evenodd;stroke-linejoin:round;stroke-miterlimit:2"
   version="1.1"
   viewBox="0 0 32 32.999001"
   width="32"
   xml:space="preserve"
   id="svg1214"
   sodipodi:docname="fb_icon.svg"
   inkscape:version="1.1.1 (3bf5ae0d25, 2021-09-20)"
   xmlns:inkscape="http://www.inkscape.org/namespaces/inkscape"
   xmlns:sodipodi="http://sodipodi.sourceforge.net/DTD/sodipodi-0.dtd"
   xmlns="http://www.w3.org/2000/svg"
   xmlns:svg="http://www.w3.org/2000/svg"><defs
     id="defs1218" /><sodipodi:namedview
     id="namedview1216"
     pagecolor="#ffffff"
     bordercolor="#666666"
     borderopacity="1.0"
     inkscape:pageshadow="2"
     inkscape:pageopacity="0.0"
     inkscape:pagecheckerboard="0"
     showgrid="false"
     inkscape:zoom="1.4550781"
     inkscape:cx="256"
     inkscape:cy="256"
     inkscape:window-width="1920"
     inkscape:window-height="1001"
     inkscape:window-x="-9"
     inkscape:window-y="-9"
     inkscape:window-maximized="1"
     inkscape:current-layer="svg1214" /><path
     d="m 15.938875,32.998935 0.01431,6.5e-5 h -0.0049 z m 0.112875,6.5e-5 h -0.0049 l 0.01431,-6.5e-5 z m -0.16175,-3.23e-4 0.01544,6.5e-5 h -0.0089 z m 0.213437,6.5e-5 h -0.0089 l 0.01546,-6.5e-5 z m -0.260562,-4.51e-4 0.01032,6.5e-5 -0.0083,-6.5e-5 z m 0.312187,0 -0.0083,6.5e-5 0.01031,-6.5e-5 z m 0.05162,-5.58e-4 -0.0036,6.4e-5 0.01394,-1.93e-4 z m -0.423682,-1.29e-4 0.01394,1.93e-4 -0.0036,-6.4e-5 z m 0.47525,-6.6e-4 -0.0084,1.29e-4 0.01718,-2.58e-4 z m -0.52525,-1.29e-4 0.01718,2.58e-4 -0.0084,-1.29e-4 z m 0.57675,-7.62e-4 -0.01138,1.94e-4 0.01588,-3.23e-4 z m -0.624,-1.29e-4 0.01587,3.23e-4 -0.01137,-1.94e-4 z m -0.05856,-0.0012 0.01406,3.22e-4 -0.0025,-6.4e-5 z m 0.734062,2.58e-4 -0.0025,6.4e-5 0.01406,-3.22e-4 z m -0.785438,-0.0016 0.01931,5.08e-4 -0.0078,-1.94e-4 z m 0.836875,3.22e-4 -0.0078,1.94e-4 0.01931,-5.08e-4 z m 0.05144,-0.0014 -0.01256,3.87e-4 0.01975,-5.59e-4 z m -0.935438,-1.93e-4 0.01975,5.58e-4 -0.01256,-3.87e-4 z m -0.045,-0.0014 0.01406,4.51e-4 -0.01325,-4.51e-4 -0.01212,-3.86e-4 z m 1.031813,0 -0.01325,4.51e-4 0.01406,-4.51e-4 0.01131,-3.86e-4 z m 0.05131,-0.0017 -0.007,2.58e-4 0.02156,-7.62e-4 z m -1.148187,-5.08e-4 0.02156,7.62e-4 -0.007,-2.58e-4 z m -0.04681,-0.0018 0.02262,8.63e-4 -0.01256,-4.52e-4 z m 1.246312,3.86e-4 -0.01256,4.52e-4 0.02262,-8.63e-4 z m -1.29225,-0.0023 0.02212,9.65e-4 -0.01731,-7.11e-4 z m 1.343438,2.58e-4 -0.01731,7.11e-4 0.02213,-9.65e-4 z m -1.407813,-0.0031 0.02375,0.0011 -0.0058,-1.93e-4 z m 1.459063,9.14e-4 -0.0058,1.94e-4 0.02375,-0.0011 z m -1.50525,-0.0031 0.02463,0.0012 -0.01163,-5.08e-4 z m 1.556375,6.6e-4 -0.01162,5.08e-4 0.02463,-0.0012 z m -1.601875,-0.003 0.02481,0.0013 -0.01744,-8.63e-4 z m 1.653,4.51e-4 -0.01743,8.63e-4 0.02481,-0.0013 z m 0.05113,-0.0028 -0.02263,0.0012 0.02006,-0.0011 0.02363,-0.0014 z m -1.745313,1.29e-4 0.02006,0.0011 -0.02263,-0.0012 -0.02106,-0.0012 z m 1.796313,-0.0031 -0.01,5.58e-4 0.02537,-0.0015 z m -1.86525,-9.14e-4 0.02538,0.0015 -0.01,-5.58e-4 z m -0.04513,-0.0028 0.02532,0.0015 -0.01581,-9.14e-4 z m 1.961375,6.6e-4 -0.01581,9.13e-4 0.02531,-0.0015 z m -2.004438,-0.0034 0.02281,0.0015 -0.02125,-0.0014 -0.02138,-0.0014 z m 2.055438,1.29e-4 -0.02125,0.0014 0.02281,-0.0015 0.01982,-0.0013 z m 0.05088,-0.0034 -0.0076,5.07e-4 0.02419,-0.0017 z m -2.172188,-0.0012 0.02419,0.0017 -0.0076,-5.07e-4 z m -0.04507,-0.0032 0.02375,0.0017 -0.013,-9.14e-4 z m 2.268125,8.63e-4 -0.013,9.13e-4 0.02375,-0.0017 z m -2.313062,-0.0041 0.02181,0.0016 -0.01694,-0.0012 z m 2.363875,3.87e-4 -0.01694,0.0012 0.02181,-0.0016 z m -2.424313,-0.0051 0.01913,0.0015 -0.0046,-3.22e-4 z m 2.475125,0.0012 -0.0047,3.23e-4 0.01912,-0.0015 z m 0.05069,-0.0041 -0.0091,7.11e-4 0.01943,-0.0016 z m -2.572313,-9.14e-4 0.01944,0.0016 -0.0091,-7.11e-4 z m -0.04531,-0.0038 0.0165,0.0014 -0.01162,-9.65e-4 z m 2.668375,4.52e-4 -0.01163,9.64e-4 0.0165,-0.0014 z m -2.71825,-0.0048 0.0049,4.52e-4 -8e-4,-6.5e-5 z m 2.768875,3.87e-4 -8e-4,6.5e-5 0.005,-4.52e-4 z m 0.05062,-0.0046 -0.0045,3.87e-4 0.01131,-10e-4 z m -2.872812,-6.6e-4 0.01131,10e-4 -0.0045,-3.87e-4 z m -0.04687,-0.0044 0.0084,8.63e-4 -0.0053,-5.08e-4 z m 2.970187,3.22e-4 -0.0053,5.08e-4 0.0084,-8.63e-4 z M 13.5,32.798427 C 5.8550625,31.559287 0,24.728932 0,16.499532 0,7.3932081 7.169375,0 16,0 c 8.830625,0 16,7.3932081 16,16.499532 0,8.2294 -5.855063,15.059755 -13.5,16.298895 V 21.268928 h 3.728125 L 22.9375,16.499532 H 18.5 v -3.095016 c 0,-1.304816 0.619875,-2.576698 2.607437,-2.576698 H 23.125 V 6.7673862 c 0,0 -1.831,-0.3222565 -3.581563,-0.3222565 -3.654749,0 -6.043437,2.2841539 -6.043437,6.4193493 v 3.635053 H 9.4375 v 4.769396 H 13.5 Z"
     id="path1212"
     style="stroke-width:1" /></svg>
