<?xml version="1.0" encoding="UTF-8" standalone="no"?>
<svg
   height="30.236221"
   style="clip-rule:evenodd;fill-rule:evenodd;stroke-linejoin:round;stroke-miterlimit:2"
   version="1.1"
   viewBox="0 0 30.236222 30.236222"
   width="30.236221"
   xml:space="preserve"
   id="svg834"
   sodipodi:docname="instagram_icon.svg"
   inkscape:version="1.1.1 (3bf5ae0d25, 2021-09-20)"
   xmlns:inkscape="http://www.inkscape.org/namespaces/inkscape"
   xmlns:sodipodi="http://sodipodi.sourceforge.net/DTD/sodipodi-0.dtd"
   xmlns="http://www.w3.org/2000/svg"
   xmlns:svg="http://www.w3.org/2000/svg"><defs
     id="defs838" /><sodipodi:namedview
     id="namedview836"
     pagecolor="#ffffff"
     bordercolor="#666666"
     borderopacity="1.0"
     inkscape:pageshadow="2"
     inkscape:pageopacity="0.0"
     inkscape:pagecheckerboard="0"
     showgrid="false"
     inkscape:zoom="1.4160156"
     inkscape:cx="256"
     inkscape:cy="256"
     inkscape:window-width="1920"
     inkscape:window-height="1001"
     inkscape:window-x="-9"
     inkscape:window-y="-9"
     inkscape:window-maximized="1"
     inkscape:current-layer="svg834" /><path
     d="m 15.118111,0 c 8.343897,0 15.11811,6.7742125 15.11811,15.118111 0,8.343898 -6.774211,15.11811 -15.118108,15.11811 C 6.774213,30.236221 0,23.462009 0,15.118111 0,6.7742125 6.774213,0 15.118111,0 Z m 0,5.669292 c -2.566122,0 -2.887914,0.010865 -3.895749,0.056869 C 10.216654,5.772046 9.5297835,5.931792 8.928721,6.1653545 8.307402,6.4068315 7.780453,6.729922 7.2551575,7.2552165 6.7298625,7.780512 6.406772,8.3074605 6.1652955,8.9287795 c -0.233563,0.601004 -0.393248,1.2878745 -0.439193,2.2935825 -0.045945,1.007835 -0.056811,1.329627 -0.056811,3.895749 0,2.566123 0.010865,2.887914 0.056811,3.895749 0.045945,1.005708 0.20563,1.692578 0.439193,2.293582 0.2414765,0.621319 0.564567,1.148268 1.089862,1.673622 0.5252955,0.525296 1.0522445,0.848387 1.6735635,1.089863 0.6010625,0.233504 1.287933,0.393248 2.293641,0.439133 1.007835,0.04601 1.329625,0.05687 3.895749,0.05687 2.566123,0 2.887913,-0.0108 3.895748,-0.05687 1.005709,-0.04588 1.692578,-0.205629 2.293582,-0.439133 0.621319,-0.241476 1.148268,-0.564567 1.673622,-1.089863 0.525295,-0.525354 0.848387,-1.052303 1.089863,-1.673622 0.233504,-0.601004 0.393248,-1.287874 0.439134,-2.293582 0.04601,-1.007835 0.05687,-1.329626 0.05687,-3.89575 0,-2.566122 -0.0108,-2.887914 -0.05687,-3.895748 C 24.46418,10.216653 24.30443,9.5297835 24.070926,8.9287795 23.82945,8.3074605 23.506358,7.780512 22.981063,7.2552165 22.455709,6.729922 21.92876,6.4068315 21.307441,6.1653545 20.706437,5.931792 20.019568,5.772048 19.013859,5.726162 18.006024,5.680157 17.684233,5.669292 15.118111,5.669292 Z m 0,1.7024995 c 2.522953,0 2.821772,0.00963 3.818149,0.055099 0.92126,0.042045 1.421517,0.1959445 1.754469,0.325335 0.441083,0.171378 0.755847,0.3761805 1.086436,0.7068305 0.33071,0.330591 0.535454,0.6454135 0.706832,1.0864375 0.129387,0.3329525 0.283346,0.8332085 0.325334,1.7544675 0.04547,0.996378 0.05511,1.295197 0.05511,3.818152 0,2.522953 -0.0096,2.821771 -0.05511,3.818148 -0.04199,0.921261 -0.195944,1.421517 -0.325334,1.754469 -0.171378,0.441083 -0.376122,0.755846 -0.706832,1.086438 -0.330589,0.330708 -0.645353,0.535452 -1.086436,0.70683 -0.332952,0.129387 -0.833209,0.283347 -1.754469,0.325335 -0.996201,0.04547 -1.295019,0.05511 -3.818148,0.05511 -2.523132,0 -2.821892,-0.0096 -3.818152,-0.05511 C 10.3787,22.767343 9.8784455,22.613386 9.545492,22.483997 9.10441,22.312618 8.789646,22.107874 8.4589965,21.777166 8.1283465,21.446574 7.9236025,21.131812 7.7522245,20.690729 7.622835,20.357777 7.468878,19.857521 7.426831,18.93626 c -0.04547,-0.996378 -0.05504,-1.295196 -0.05504,-3.81815 0,-2.522953 0.00957,-2.821772 0.05504,-3.81815 C 7.468876,10.3787 7.622835,9.8784455 7.7522245,9.545493 7.9236025,9.104469 8.1283465,8.7896465 8.4589965,8.459056 8.789646,8.128406 9.10441,7.923603 9.545492,7.752225 9.8784455,7.622835 10.3787,7.4689375 11.29996,7.4268905 c 0.996378,-0.04547 1.295199,-0.055099 3.818151,-0.055099 z m 0,2.8942315 c -2.679745,0 -4.852086,2.172343 -4.852086,4.852088 0,2.679743 2.172342,4.852087 4.852088,4.852087 2.679742,0 4.852084,-2.172344 4.852084,-4.852087 0,-2.679745 -2.172342,-4.852089 -4.852086,-4.852088 z m 0,8.001675 c -1.739469,0 -3.149587,-1.410118 -3.149587,-3.149588 0,-1.739468 1.410118,-3.149588 3.149587,-3.149588 1.739468,0 3.149586,1.410119 3.149586,3.149588 0,1.73947 -1.410118,3.149588 -3.149586,3.149588 z m 6.177697,-8.193368 c 0,0.62622 -0.507697,1.133799 -1.133917,1.133799 -0.626162,0 -1.1338,-0.507579 -1.1338,-1.133799 0,-0.626219 0.507638,-1.1338575 1.1338,-1.1338575 0.62622,0 1.133917,0.5076385 1.133917,1.1338575 z"
     id="path832"
     style="stroke-width:0.999997" /></svg>
